<svg width="512" height="512" viewBox="0 0 512 512" fill="none" xmlns="http://www.w3.org/2000/svg">
  <g transform="translate(-10, 60) scale(4.8)">
    <!-- Bird/mouth shape -->
    <path
      d="M66.60727 53.67264c2.246 0.618 4.125 1.672 6.105 2.868 0.945 0.57 1.899 1.129 2.848 1.691l0.574 0.34c15.102 8.918 31.531 15.03101 48.57001 19.101l0.582 0.13701c25.008 5.942 51.594 6.903 104.754-2.77301 7.903-2.364 15.82001-5.12999 23.215-8.797q0.84-0.41899 1.69199-0.82399c4.39001-2.141 8.707-4.44201 12.75299-7.184l0.77801-0.46 0.879 0c-0.211 1.589-0.965 2.526-1.918 3.788-2.254 2.79001-4.81699 5.3-7.34 7.84401l-0.76999 0.77699c-1.746 1.746-3.582 3.324-5.52301 4.856l-1.23001 1c-4.49891 3.57349-9.28895 6.76428-14.31999 9.53899l-0.802 0.457c-1.62973 0.9053-3.31664 1.70364-5.04999 2.39-0.875 0.364-1.71499 0.76201-2.567 1.17601-3.07001 1.422-6.28101 2.496-9.48 3.586l-0.88999 0.30499c-14.58701 4.914-30.118 7.00801-45.47001 7.30501l-0.863 0.01999c-19.637 0.39399-38.715-3.01999-57.23401-9.388l-1.95-0.66401-0.816-0.27299c-1.38093-0.43796-2.83118-0.61563-4.277-0.524-1.36 0.325-2.176 0.84-3.227 1.75399q-0.75 0.84601-1.45 1.739l-0.413 0.53c-6.387 8.35201-11.43799 17.778-12.82 28.302-0.282 2.26502-0.418 4.52701-0.524 6.80802-0.3 6.168-0.762 12.313-3.945 17.778-1.918 2.83999-4.516 5.253-7.567 6.835-4.117 1.922-8.203 2.14101-12.695 1.754-3.535-0.433-7.54699-1.586-10.508-3.629l-0.547-0.41-0.707-0.52c-3.027-2.308-5.52-5.097-7.023-8.616-2.574-6.30499-3.14-12.985-2.42599-19.72701 0.871-5.957 2.89-11.52299 5.75799-16.79299l0.312-0.59c1.543-2.894 3.258-5.594 5.26201-8.191l0.508-0.664c3.578-4.57001 7.855-8.707 12.695-11.92199l0.567-0.379c4.37-2.89801 9.105-5.582 14.10499-7.23001l0.88 0c-1.368-2.426-3.036-4.325-5.036-6.23-2.508-2.395-4.863-4.81-6.91401-7.614-0.746-0.992-1.547-1.938-2.33599-2.895-3.324-4.062-3.324-4.062-4.2-5.504l0.001-0.87901z"
      fill="#f46535"
      transform="scale(0.408)"
    />
    <!-- White accent -->
    <path
      d="M22.04386 0.13009c0.758 0.297 1.461 0.594 2.184 0.954l0.535 0.265c0.754 0.399 1.367 0.809 1.96901 1.414 0.3 0.59 0.3 0.59 0.32 1.18801l-0.312 0.57c-0.762 0.461-0.762 0.461-1.778 0.914-3.59 1.684-6.972 3.793-9.957 6.402l-0.586 0.473c-3.89 3.41-5.925 9.242-8.066 13.805-0.738 1.57-1.492 3.133-2.242 4.695l-0.41 0.856-0.38301 0.796-0.332 0.692q-0.44 0.907-0.89 1.808l-1.47 0c-0.687-1.675-0.718-3.222-0.51999-5q0.155-0.924 0.356-1.843l0.149-0.70301c1.886-8.239 5.199-15.649 10.863-21.96499 1.25-1.344 2.637-2.477 4.117-3.56301l0.53099-0.398c1.797-1.281 3.758-1.742 5.922-1.36"
      fill="#fefefe"
      transform="translate(27.9, 32) scale(0.408)"
    />
    <!-- Orange accent (mouth) -->
    <path
      d="M17.51057 2.13309q1.887 0.72 3.75 1.492l0 1.172c-0.6013 0.57575-1.23215 1.11982-1.89 1.63-1.57093 1.27212-2.98937 2.72176-4.227 4.32-1.328 1.652-2.754 3.199-4.555 4.332-1.753 0.421-3.48 0.468-5.253 0.128-1.372-0.433-2.47-1.214-3.508-2.195-0.926-1.078-1.39-2.148-1.692-3.531-0.18-1.629-0.238-3.223 0.192-4.817 0.566-1.277 1.418-2.156 2.508-3.011 4.43-3.078 10.054-1.227 14.675 0.48"
      fill="#f46535"
      transform="translate(8.1, 30.5) scale(0.408)"
    />
  </g>
</svg>
